<?xml version="1.0" standalone="no"?>
<!DOCTYPE svg PUBLIC "-//W3C//DTD SVG 20010904//EN"
 "http://www.w3.org/TR/2001/REC-SVG-20010904/DTD/svg10.dtd">
<svg version="1.0" xmlns="http://www.w3.org/2000/svg"
 width="300.000000pt" height="300.000000pt" viewBox="0 0 300.000000 300.000000"
 preserveAspectRatio="xMidYMid meet">
<metadata>
Created by potrace 1.10, written by Peter Selinger 2001-2011
</metadata>
<g transform="translate(0.000000,300.000000) scale(0.100000,-0.100000)"
fill="#000000" stroke="none">
<path d="M1004 2444 c4 -10 -3 -14 -28 -14 -62 0 -61 2 -59 -147 2 -109 5
-140 18 -152 13 -13 51 -17 225 -19 118 -2 210 -7 210 -12 0 -5 -7 -7 -15 -4
-13 5 -15 -8 -15 -85 0 -50 4 -91 9 -91 11 0 12 -775 1 -838 -5 -30 -4 -45 4
-48 8 -3 11 -72 11 -247 l0 -242 50 2 c28 1 98 7 157 13 l107 13 8 46 c4 25 8
108 8 184 0 75 2 137 5 137 3 0 3 199 2 442 -2 244 -1 503 3 576 l7 132 149 0
c108 0 159 4 184 14 l35 15 0 83 c0 46 3 113 7 151 5 60 4 67 -11 61 -9 -3
-16 -1 -16 5 0 7 -28 11 -77 11 -43 0 -161 5 -263 10 -113 7 -210 7 -249 2
-57 -8 -178 -4 -404 12 -57 4 -68 3 -63 -10z m66 -46 c-83 -22 -85 -25 -88
-116 -2 -47 2 -91 8 -103 10 -18 9 -20 -7 -17 -16 3 -18 16 -21 110 l-3 108
33 14 c18 8 51 14 73 14 l40 0 -35 -10z m458 -5 c-15 -2 -42 -2 -60 0 -18 2
-6 4 27 4 33 0 48 -2 33 -4z m479 -110 c-4 -49 -7 -88 -7 -88 -90 0 -341 -3
-354 -4 -11 -1 -27 -6 -38 -12 -17 -9 -18 -42 -18 -762 l0 -753 -58 -12 c-32
-7 -62 -12 -68 -12 -5 0 -9 290 -10 753 0 726 -4 815 -30 810 -5 0 -99 -4
-209 -8 l-200 -7 3 79 3 80 97 6 c138 10 234 9 228 -2 -4 -5 125 -7 316 -4
178 3 325 10 326 14 2 5 8 9 14 9 7 0 9 -29 5 -87z m-605 -163 c5 -19 11 -276
14 -570 5 -440 4 -533 -7 -523 -10 10 -13 108 -16 460 -4 628 -5 632 -26 647
-23 18 -21 28 5 24 16 -2 25 -13 30 -38z m288 7 c0 -13 -5 -28 -12 -35 -9 -9
-14 -186 -19 -722 -6 -628 -9 -713 -23 -735 -10 -15 -22 -22 -32 -18 -13 5
-12 9 6 28 20 22 20 27 22 746 0 405 5 732 10 742 13 26 48 22 48 -6z m212 -4
c-40 -2 -103 -2 -140 0 -37 2 -4 3 73 3 77 0 107 -2 67 -3z m-457 -1531 c-28
-6 -45 7 -45 35 l0 27 31 -30 c24 -23 27 -30 14 -32z"/>
</g>
</svg>
