<?xml version="1.0" encoding="utf-8"?>
<!-- Generator: Adobe Illustrator 25.0.1, SVG Export Plug-In . SVG Version: 6.00 Build 0)  -->
<svg version="1.0" id="katman_1" xmlns="http://www.w3.org/2000/svg" xmlns:xlink="http://www.w3.org/1999/xlink" x="0px" y="0px"
	 viewBox="0 0 2869.3 1860" style="enable-background:new 0 0 2869.3 1860;" xml:space="preserve">
<style type="text/css">
	.st0{fill:#3395FF;}
	.st1{fill:#072654;}
</style>
<path class="st0" d="M345.4,804.8l-20.8,76.5l118.9-76.9l-77.8,290.3l79,0.1l114.9-428.7"/>
<path class="st1" d="M217.4,972.6l-32.7,122h161.9l66.3-248.2L217.4,972.6z M779.9,865.2c-4,14.7-11.6,25.5-23,32.4
	c-11.3,6.9-27.3,10.3-47.8,10.3h-65.3l22.9-85.5H732c20.5,0,34.6,3.4,42.3,10.4s9.5,17.7,5.6,32.5 M847.5,863.5
	c8.3-30.9,4.9-54.6-10.3-71.2c-15.2-16.5-41.8-24.8-79.8-24.8H611.6l-87.7,327.4h70.8l35.4-131.9h46.4c10.4,0,18.6,1.7,24.6,5
	c6,3.4,9.5,9.4,10.6,17.9l12.6,109h75.9L788,993.2c-2.5-22.7-12.9-36-31.1-40c23.3-6.7,42.7-17.9,58.5-33.5
	c15.6-15.5,26.7-34.8,32.2-56.1 M1019.6,977.6c-5.9,22.2-15,38.9-27.4,50.7c-12.3,11.7-27,17.5-44.2,17.5
	c-17.5,0-29.4-5.7-35.6-17.2c-6.3-11.5-6.5-28.1-0.7-49.9c5.8-21.8,15.1-38.8,27.9-51.1c12.8-12.3,27.8-18.4,44.9-18.4
	c17.2,0,28.9,5.9,34.8,17.7c6.1,11.8,6.2,28.8,0.3,50.8L1019.6,977.6z M1050.7,861.8l-8.9,33.1c-3.8-11.9-11.3-21.4-22.2-28.5
	c-11-7-24.6-10.6-40.9-10.6c-19.9,0-39.1,5.1-57.4,15.4c-18.3,10.3-34.4,24.8-48.2,43.5c-13.7,18.7-23.7,40-30.2,63.9
	c-6.3,24-7.7,45-3.8,63.2c4,18.3,12.3,32.3,25.1,42.1c12.9,9.9,29.4,14.8,49.6,14.8c16,0.1,31.9-3.4,46.4-10.2
	c14.4-6.5,27.2-16,37.5-28l-9.2,34.5h68.5l62.5-233.2h-68.6L1050.7,861.8z M1365.6,861.8h-199.1l-13.9,52h115.9l-153.2,132.3
	l-13.1,48.8h205.6l13.9-52h-124.2L1353,908.6 M1540.9,977.2c-6.2,23-15.3,40.2-27.4,51.5c-12.1,11.3-26.7,17-43.9,17
	c-35.9,0-47.7-22.8-35.4-68.5c6.1-22.7,15.3-39.8,27.5-51.2c12.3-11.5,27.1-17.3,44.6-17.3c17.2,0,28.7,5.7,34.7,17.2
	C1547,937.4,1546.9,954.5,1540.9,977.2 M1580.9,870.6c-15.8-9.8-35.9-14.7-60.4-14.7c-24.8,0-47.8,4.9-69,14.6
	c-21.1,9.7-39.6,24.2-54.1,42.3c-14.9,18.3-25.6,39.8-32.2,64.4c-6.5,24.4-7.3,45.9-2.2,64.3c5,18.3,15.6,32.5,31.4,42.2
	c16,9.8,36.3,14.7,61.2,14.7c24.5,0,47.4-4.9,68.3-14.8c21-9.9,38.9-23.9,53.8-42.4c14.9-18.4,25.6-39.8,32.2-64.4
	c6.6-24.5,7.4-46,2.4-64.4c-5-18.3-15.4-32.5-31.1-42.3 M1825.4,924.1l17.5-63.5c-5.9-3-13.7-4.6-23.5-4.6
	c-15.7,0-30.7,3.9-45.3,11.7c-12.5,6.7-23.1,16.1-32.1,27.9l9.1-34.2l-19.9,0.1h-48.8l-62.9,233.1h69.4l32.7-121.9
	c4.7-17.7,13.3-31.7,25.6-41.6c12.3-9.9,27.6-14.9,46-14.9C1804.7,916.3,1815.3,918.9,1825.4,924.1 M2018.6,978.4
	c-5.9,21.8-14.9,38.4-27.2,49.9c-12.3,11.5-27,17.3-44.2,17.3c-17.2,0-28.9-5.8-35.1-17.4c-6.3-11.7-6.5-28.5-0.5-50.6
	c5.9-22.1,15-39.1,27.6-50.8c12.5-11.8,27.3-17.7,44.5-17.7c16.9,0,28.2,6.1,34.3,18.3c6.1,12.3,6.2,29.3,0.4,51.1 M2066.9,870.9
	c-12.9-10.3-29.3-15.4-49.2-15.4c-17.5,0-34.1,4-49.9,12c-15.8,8-28.6,18.9-38.4,32.6l0.2-1.6l11.7-37.1h-67.8l-17.3,64.5l-0.5,2.2
	l-71.2,265.8h69.5l35.9-133.8c3.6,11.9,10.8,21.2,21.9,28c11.1,6.7,24.8,10.1,41,10.1c20.2,0,39.5-4.9,57.7-14.6
	c18.3-9.8,34.2-23.9,47.6-42.1s23.4-39.3,29.8-63.2c6.5-23.9,7.8-45.3,4.1-63.9c-3.8-18.7-12.1-33.2-24.9-43.4 M2297.5,977.4
	c-5.9,22-15,38.9-27.3,50.5c-12.3,11.7-27,17.5-44.2,17.5c-17.5,0-29.4-5.7-35.6-17.2c-6.3-11.5-6.5-28.1-0.7-49.9
	c5.8-21.8,15.1-38.8,27.9-51.1s27.8-18.4,45-18.4c17.2,0,28.8,5.9,34.8,17.7C2303.5,938.4,2303.5,955.4,2297.5,977.4L2297.5,977.4z
	 M2328.5,861.5l-8.9,33.1c-3.8-11.9-11.2-21.4-22.2-28.5c-11.1-7-24.7-10.6-40.9-10.6c-19.9,0-39.2,5.1-57.5,15.4
	c-18.3,10.3-34.4,24.7-48.2,43.4c-13.7,18.7-23.8,40-30.2,63.9c-6.4,24-7.7,45-3.8,63.3c3.9,18.2,12.2,32.3,25.1,42.1
	c12.9,9.8,29.4,14.7,49.6,14.7c16.2,0,31.7-3.4,46.4-10.2c14.3-6.5,27.1-16.1,37.4-28l-9.2,34.5h68.5l62.5-233.1h-68.5L2328.5,861.5
	z M2684.6,861.6L2684.6,861.6l-42.1-0.1c-1.3,0-2.5,0.1-3.8,0.1H2617l-11.2,15.6l-2.8,3.7l-1.2,1.8l-88.7,123.6l-18.3-144.7h-72.7
	l36.8,220l-81.3,112.5h72.4l19.7-27.9c0.6-0.8,1.1-1.5,1.7-2.4l23-32.6l0.7-0.9l102.8-145.8l86.7-122.7l0.1-0.1h0V861.6z"/>
</svg>
